# xmcd CD database file
# Copyright (C) 1996 Ti Kan
#
# Track frame offsets:
#  150
#  16200
#  29325
#  47025
#  60750
#  74775
#  88950
#  100463
#  114750
#  132825
#  143475
#  162938
#  174750
#  187988
#
# Disc length: 2879 seconds
#
# Revision: 2
# Processed by: cddbd v1.4PL0 Copyright (c) Steve Scherf et al.
# Submitted via: Gronk 1.4
#
DISCID=b10b3d0e
DTITLE=Johnny Shines - Traditional Delta Blues
DYEAR=1900
DGENRE=blues
TTITLE0=Sitting On Top Of The World
TTITLE1=Ramblin' Blues
TTITLE2=Tell Me Mama
TTITLE3=Bumble Bee Blues
TTITLE4=It Ain't Nobody's Fault But Mine
TTITLE5=Arguing And Boodling
TTITLE6=Delta Pine
TTITLE7=Pony Blues
TTITLE8=Milk Cow Blues
TTITLE9=Dynaflow Blues
TTITLE10=Glad Rags
TTITLE11=Pet Rabbit
TTITLE12=Little Wolf
TTITLE13=Jim String
EXTD=Sung and played on Acoustic and National Steel Guitars by Johnny Shi
EXTD=nes.  Recording dates:  sides 1 -12, 1972, 13 - 14, 1974\n\nProduced
EXTD=by Arnold S. Caplin\n\nSubmitted 6/30/97\n[Jmccoy@efn.org]
EXTT0=
EXTT1=
EXTT2=
EXTT3=
EXTT4=
EXTT5=
EXTT6=
EXTT7=
EXTT8=
EXTT9=
EXTT10=
EXTT11=
EXTT12=
EXTT13=
PLAYORDER=
